<svg width="240" height="170" viewBox="0 0 240 170" fill="none" xmlns="http://www.w3.org/2000/svg">
<path d="M162.441 57.5503L162.44 57.5497L162.435 57.5209C161.569 52.9785 160.667 48.2497 162.136 43.5846C162.22 43.3209 162.447 42.8835 162.847 42.3142C163.241 41.7534 163.784 41.0901 164.475 40.3771C165.865 38.9588 167.81 37.2984 170.198 35.4958C174.972 31.9255 181.49 27.8794 188.94 23.9287C202.849 16.5677 219.96 9.6492 234.91 6.85739C233.172 13.3252 230.917 20.2324 227.779 25.0152C221.751 27.5827 214.165 30.3233 206.568 33.0679C203.011 34.3532 199.451 35.6394 196.047 36.9091L196.047 36.9092C190.609 38.9398 185.577 40.9253 181.581 42.8137C179.581 43.7547 177.829 44.6383 176.387 45.5581C174.946 46.4775 173.787 47.4506 172.996 48.5831L172.975 48.6131L172.959 48.6458L172.925 48.7129L172.896 48.771C170.174 53.7107 169.467 57.7386 169.077 61.2284C169.02 61.7413 168.969 62.2392 168.919 62.7255C168.629 65.5517 168.378 67.9891 167.197 70.7503C165.481 74.7596 162.643 76.9999 159.053 78.0658C162.099 72.0384 163.986 65.7054 162.441 57.5503ZM183.283 46.4358L183.283 46.4357C187.088 44.6335 192.037 42.6769 197.436 40.6645C200.781 39.4184 204.297 38.1514 207.828 36.8791C214.021 34.6476 220.258 32.3999 225.693 30.2206C224.619 35.3243 222.996 39.9564 218.788 44.5477C206.325 50.2343 188.095 54.4035 174.265 55.5756C174.731 54.121 175.385 52.5566 176.343 50.8186C176.642 50.4272 177.403 49.7877 178.605 49.0052C179.81 48.2204 181.404 47.3252 183.283 46.4358ZM173.047 61.6761L173.048 61.6712C173.118 60.9973 173.199 60.3283 173.312 59.6418C186.201 58.7297 202.81 55.3457 215.849 50.1945C214.448 54.357 211.691 58.406 206.769 61.83C195.28 63.5492 184.767 64.133 172.916 62.9511C172.93 62.8202 172.943 62.6895 172.955 62.5598L172.956 62.5576C172.985 62.2591 173.014 61.9652 173.047 61.6761ZM172.135 68.4012C172.247 67.9066 172.346 67.4172 172.43 66.9286C183.025 67.9831 192.61 67.674 202.603 66.4299C202.032 67.4468 201.345 68.3536 200.384 69.2056C199.176 70.2765 197.514 71.2799 195.059 72.2951C191.531 72.3885 187.205 72.162 183.017 71.5181C178.946 70.8921 175.043 69.8769 172.135 68.4012ZM175.923 76.7367C173.504 75.7287 171.629 74.5005 170.507 73.0232C170.552 72.9258 170.599 72.8224 170.647 72.7175C170.718 72.5613 170.79 72.402 170.859 72.2551C176.264 74.8981 183.407 75.9934 189.648 76.268C189.26 76.6138 188.851 76.9545 188.356 77.3002C187.503 77.8972 186.389 78.5129 184.715 79.154C181.456 78.5646 178.424 77.7788 175.923 76.7367Z" fill="black" stroke="black"/>
<path d="M4.19421 6.224C19.3936 8.93002 36.908 15.9845 51.084 23.4868C58.5495 27.446 65.0922 31.5059 69.8919 35.096C72.2926 36.9079 74.2588 38.5855 75.673 40.0283C77.0873 41.4878 77.9177 42.7628 78.1308 43.4338C79.6474 48.2486 78.7045 53.1138 77.8405 57.6434C76.2384 66.0986 78.3824 72.5575 81.6957 78.8319C77.4614 77.8756 74.086 75.5102 72.1332 70.947C70.7123 67.6253 70.6016 64.7398 70.2157 61.2838C69.8299 57.8279 69.1336 53.8687 66.4511 49.0036L66.4176 48.9365L66.384 48.8694C64.9077 46.7556 61.9886 45.145 57.9958 43.2661C54.0199 41.3871 49.0037 39.4075 43.5682 37.3776C32.8649 33.3848 20.5511 29.2075 11.6764 25.4161C8.32119 20.3664 5.9725 12.9614 4.19421 6.224ZM13.4212 29.4089C22.0945 32.9319 32.9824 36.6394 42.5281 40.196C47.9301 42.2092 52.8958 44.172 56.7208 45.9838C60.5123 47.7789 63.1797 49.6075 63.8676 50.547C65.0083 52.6105 65.7297 54.4391 66.2162 56.1335C52.2248 55.0431 33.4521 50.7986 20.7021 44.9605C16.1054 39.9779 14.5116 34.945 13.4212 29.4089ZM23.1514 49.3391C36.4047 54.7411 53.6843 58.2809 66.9041 59.17C67.0551 60.0088 67.1557 60.8141 67.2396 61.6194C67.3067 62.2065 67.357 62.8105 67.4241 63.3977C55.2781 64.6559 44.558 64.0687 32.8314 62.3072C27.3623 58.5325 24.4768 53.9861 23.1514 49.3391ZM36.3041 65.8134C46.7557 67.1723 56.7041 67.5246 67.7764 66.3838C67.8939 67.1388 68.0449 67.8937 68.2294 68.6654C62.2067 71.8865 51.7718 72.9937 44.6251 72.7924C39.5587 70.7121 37.663 68.6319 36.3041 65.8134ZM69.1554 71.5845C69.3484 71.9368 69.6822 72.7085 69.8617 73.0776C67.508 76.4664 61.6866 78.4796 55.0264 79.6707C51.4699 78.3286 50.2787 77.0703 48.9031 75.8121C55.5633 75.6276 63.4481 74.5204 69.1521 71.5845H69.1554Z" fill="black"/>
<g clip-path="url(#clip0_126_58)">
<path fill-rule="evenodd" clip-rule="evenodd" d="M136.894 141.667C136.895 144.526 135.815 147.28 133.871 149.376C131.927 151.473 129.262 152.757 126.411 152.972L125.561 153H114.228C111.368 153.001 108.614 151.921 106.518 149.977C104.421 148.033 103.137 145.368 102.923 142.517L102.894 141.667H136.894ZM119.894 45.3333C130.179 45.3331 140.062 49.3276 147.458 56.4743C154.854 63.621 159.186 73.3611 159.538 83.6399L159.561 84.9999V106.329L169.886 126.979C170.336 127.88 170.562 128.876 170.543 129.884C170.524 130.891 170.261 131.878 169.777 132.762C169.293 133.645 168.602 134.398 167.763 134.956C166.925 135.514 165.963 135.861 164.961 135.966L164.31 136H75.4789C74.4712 136 73.4784 135.756 72.5857 135.289C71.6929 134.821 70.9268 134.144 70.353 133.316C69.7792 132.487 69.4148 131.532 69.291 130.532C69.1672 129.532 69.2877 128.517 69.6423 127.574L69.9029 126.979L80.2276 106.329V84.9999C80.2276 74.4797 84.4068 64.3903 91.8457 56.9513C99.2846 49.5124 109.374 45.3333 119.894 45.3333ZM119.894 56.6666C112.593 56.667 105.574 59.486 100.3 64.5357C95.0267 69.5853 91.9062 76.4758 91.5893 83.7702L91.5609 84.9999V106.329C91.561 107.735 91.2997 109.128 90.7903 110.438L90.3653 111.401L83.7353 124.667H156.059L149.429 111.395C148.8 110.139 148.41 108.776 148.279 107.378L148.228 106.329V84.9999C148.228 77.4854 145.242 70.2788 139.929 64.9652C134.615 59.6517 127.409 56.6666 119.894 56.6666Z" fill="black"/>
</g>
<defs>
<clipPath id="clip0_126_58">
<rect width="136" height="136" fill="white" transform="translate(51.8943 33.9999)"/>
</clipPath>
</defs>
</svg>
